<?xml version="1.0" encoding="utf-8"?>
<!-- Generator: Adobe Illustrator 25.4.1, SVG Export Plug-In . SVG Version: 6.00 Build 0)  -->
<svg version="1.1" id="Layer_1" xmlns="http://www.w3.org/2000/svg" xmlns:xlink="http://www.w3.org/1999/xlink" x="0px" y="0px"
	 viewBox="0 0 1440 68" style="enable-background:new 0 0 1440 68;" xml:space="preserve">
<style type="text/css">
	.st0{fill-rule:evenodd;clip-rule:evenodd;fill:#F0EBEA;}
	.st1{fill:#F0EBEA;}
</style>
<path class="st0" d="M1312.1,68h54.8V45.3h18.3V22.7l18.3,0v22.7l36.5,0V0h-18.3v22.7l-18.3,0V0l-91.3,0V68z M1330.4,45.3h18.3V22.7
	h-18.3V45.3z"/>
<path class="st0" d="M1312.1,68h-54.8V0h54.8V68z M1293.9,45.3h-18.3V22.7h18.3V45.3z"/>
<path class="st1" d="M1257.3,45.3H1239V22.7h-18.3v22.7l-54.8,0V22.7h18.3V0l73.1,0V45.3z"/>
<path class="st0" d="M1129.4,45.3h18.3V22.7l18.3,0V0L237.5,0v68h54.8V45.3h18.3V22.7l18,0V24h0.3v21.3l36.5,0v8H389V38.7l11.8,0
	v14.7h11.8V38.7l11.8,0v14.7l35.5,0V38.7h11.8v14.7h11.8V68H519V24l0,44h35.5V53.3h11.8V38.7l11.8,0v14.7l47.3,0V38.7l11.8,0v14.7
	h11.8V38.7l11.8,0v14.7l35.5,0V38.7h11.8v14.7H720V24v44h35.5h35.5V53.3h11.8V38.7l11.8,0v14.7l47.3,0V38.7h11.8v14.7h11.8V38.7
	h11.8V24l11.8,0v14.7l-11.8,0v14.7l35.5,0V38.7h11.8v14.7h11.8V24l0,44h70.9V53.3h11.8V38.7h11.8v14.7h23.6v-8h36.5V22.7h18.3V45.3z
	 M1027.3,24l23.6,0v14.7h11.8V24h11.8L1027.3,24z M850,24l-94.6,0l59.1,0l0,14.7h11.8V24h11.8v14.7H850V24z M672.7,24v14.7h-11.8V24
	L672.7,24z M613.6,24L519,24l59.1,0l0,14.7H590V24h11.8v14.7h11.8V24z M436.3,24v14.7h-11.8V24L436.3,24z M377.2,24l-11.8,0v14.7
	h11.8V24z M1003.7,53.3h11.8V38.7h-11.8V53.3z M980.1,53.3h-11.8V38.7h11.8V53.3z M779.1,53.3h-11.8V38.7h11.8V53.3z M731.8,53.3
	h11.8V38.7h-11.8V53.3z M542.7,53.3h-11.8V38.7h11.8V53.3z M495.4,53.3h11.8V38.7h-11.8V53.3z M274,45.3h-18.3V22.7H274V45.3z"/>
<path class="st0" d="M182.7,68h54.8V0h-54.8V68z M201,45.3h18.3V22.7H201V45.3z"/>
<path class="st1" d="M164.4,45.3h18.3V0l-73.1,0v22.7H91.3v22.7l54.8,0V22.7h18.3V45.3z"/>
<path class="st1" d="M73.1,45.3H54.8V22.7H36.5v22.7H0V22.7h18.3V0l73.1,0v22.7l-18.3,0V45.3z"/>
</svg>
